<?xml version="1.0" encoding="utf-8"?>
<svg viewBox="0 0 500 500" xmlns="http://www.w3.org/2000/svg">
  <path d="M 354.875 239.393 L 368.641 239.393 L 366.85 256.216 L 353.134 256.216 L 354.875 239.393 Z M 471.079 145.023 L 471.079 355.764 C 470.613 369.072 463.848 380.97 451.963 388.874 L 269.457 494.244 C 258.944 500.315 241.738 500.315 231.224 494.244 L 48.717 388.874 C 37.641 381.612 30.419 369.903 29.601 355.764 L 29.601 145.023 C 29.601 132.882 38.203 117.983 48.717 111.913 L 231.224 6.544 C 241.738 0.472 258.944 0.472 269.457 6.544 L 451.963 111.913 C 463.004 119.366 470.653 132.25 471.079 145.023 Z M 377.784 324.014 L 314.097 287.163 C 271.614 355.169 177.79 321.935 176.76 250.394 C 180.187 172.77 275.646 150.033 314.093 213.621 L 377.778 176.769 C 294.781 43.25 102.316 106.701 103.181 250.394 C 106.87 405.309 304.637 450.994 377.784 324.014 Z M 392.987 227.681 L 382.069 227.681 L 384.037 208.67 L 371.908 208.67 L 369.886 227.681 L 356.088 227.681 L 358.056 208.67 L 345.927 208.67 L 343.905 227.681 L 332.343 227.681 L 332.343 239.393 L 342.659 239.393 L 340.87 256.216 L 328.946 256.216 L 328.946 267.928 L 339.624 267.928 L 337.412 288.722 L 349.769 288.722 L 351.921 267.928 L 365.604 267.928 L 363.392 288.722 L 375.75 288.722 L 377.902 267.928 L 389.592 267.928 L 389.592 256.216 L 379.115 256.216 L 380.856 239.393 L 392.987 239.393 L 392.987 227.681 Z" style="fill: rgb(255, 255, 255);"/>
</svg>