<?xml version="1.0" encoding="utf-8"?>
<svg viewBox="0 0 500 500" xmlns="http://www.w3.org/2000/svg">
  <path d="M 74.649 75.548 L 423.431 75.548 L 423.431 424.328 L 74.649 424.328 L 74.649 75.548 Z M 394.859 341.145 C 392.316 325.231 381.955 311.861 351.218 299.392 C 340.522 294.379 328.634 290.89 325.103 282.825 C 323.78 278.029 323.578 275.413 324.434 272.58 C 326.614 263.191 337.731 260.373 346.452 262.989 C 352.119 264.733 357.351 269.092 360.635 276.067 C 375.662 266.244 375.662 266.244 386.139 259.719 C 382.216 253.615 380.269 250.984 377.624 248.383 C 368.468 238.137 356.276 232.905 336.439 233.357 L 326.192 234.65 C 316.369 237.048 307.009 242.28 301.342 249.255 C 284.776 268.017 289.556 300.714 309.611 314.23 C 329.448 329.053 358.455 332.309 362.162 346.273 C 365.649 363.278 349.517 368.728 333.59 366.766 C 321.804 364.15 315.279 358.249 308.086 347.35 L 281.491 362.624 C 284.542 369.599 288.031 372.636 293.263 378.74 C 318.548 404.259 381.765 402.951 393.116 364.15 C 393.537 362.842 396.603 353.905 394.191 340.17 L 394.859 341.145 Z M 264.314 235.856 L 231.645 235.856 C 231.645 264.02 231.513 292.01 231.513 320.217 C 231.513 338.122 232.429 354.559 229.508 359.615 C 224.713 369.628 212.36 368.349 206.75 366.59 C 200.996 363.742 198.075 359.819 194.688 354.165 C 193.773 352.64 193.09 351.317 192.843 351.317 L 166.32 367.666 C 170.753 376.822 177.219 384.698 185.562 389.712 C 197.987 397.124 214.685 399.521 232.167 395.597 C 243.547 392.313 253.355 385.556 258.486 375.092 C 265.898 361.577 264.329 345.011 264.256 326.466 C 264.43 296.617 264.256 266.753 264.256 236.67 L 264.314 235.856 Z" style="fill: rgb(255, 255, 255);"/>
</svg>