<?xml version="1.0" encoding="utf-8"?>
<svg viewBox="0 0 500 500" xmlns="http://www.w3.org/2000/svg">
  <path d="M 485.998 115.162 C 486.15 115.808 486.242 116.531 486.242 117.162 L 486.242 222.859 C 486.242 225.583 484.796 228.153 482.397 229.507 L 393.684 280.633 L 393.684 381.839 C 393.684 384.561 392.238 387.131 389.837 388.485 L 204.657 495.061 C 204.257 495.307 203.78 495.46 203.289 495.614 C 203.135 495.692 202.965 495.768 202.811 495.86 C 201.535 496.184 200.165 496.184 198.889 495.86 C 198.642 495.784 198.488 495.706 198.334 495.614 C 197.857 495.46 197.457 495.291 197.056 495.061 L 11.955 388.485 C 9.553 387.115 8.031 384.561 8.031 381.839 L 8.031 64.759 C 8.031 64.112 8.185 63.389 8.354 62.758 C 8.431 62.512 8.508 62.359 8.6 62.113 C 8.754 61.712 8.924 61.312 9.077 60.911 C 9.155 60.667 9.401 60.512 9.553 60.266 C 9.8 59.944 10.032 59.619 10.276 59.297 C 10.523 59.143 10.755 58.974 11.001 58.742 C 11.324 58.496 11.554 58.265 11.877 58.097 L 104.436 4.802 C 106.836 3.432 109.806 3.432 112.129 4.802 L 204.765 58.097 C 205.088 58.251 205.32 58.496 205.565 58.742 C 205.811 58.896 206.119 59.143 206.366 59.297 C 206.612 59.619 206.766 59.85 207.012 60.266 C 207.165 60.42 207.411 60.667 207.565 60.911 C 207.72 61.312 207.888 61.712 208.042 62.113 C 208.12 62.359 208.289 62.512 208.289 62.758 C 208.535 63.405 208.611 64.036 208.611 64.759 L 208.611 262.769 L 285.693 218.383 L 285.693 117.177 C 285.693 116.454 285.847 115.808 286.017 115.177 C 286.093 114.931 286.169 114.699 286.263 114.531 C 286.416 114.13 286.586 113.731 286.74 113.331 C 286.894 113.007 287.139 112.854 287.293 112.608 C 287.539 112.284 287.693 111.961 287.94 111.731 C 288.186 111.5 288.493 111.33 288.739 111.176 C 288.985 110.93 289.216 110.699 289.54 110.531 L 382.176 57.236 C 384.499 55.79 387.468 55.79 389.869 57.236 L 482.427 110.531 C 482.751 110.685 482.982 110.93 483.304 111.176 C 483.55 111.33 483.781 111.5 484.027 111.731 C 484.274 111.961 484.504 112.284 484.75 112.608 C 484.904 112.854 485.151 113.007 485.227 113.331 C 485.473 113.731 485.551 114.13 485.705 114.531 C 485.858 114.685 485.95 114.931 486.028 115.177 L 485.998 115.162 Z M 470.766 218.367 L 470.766 130.548 L 438.395 149.133 L 393.684 174.934 L 393.684 262.755 L 470.766 218.367 Z M 378.298 377.346 L 378.298 289.433 L 334.219 314.512 L 208.565 386.316 L 208.565 475.028 L 378.298 377.346 Z M 23.385 78.128 L 23.385 377.346 L 193.103 475.028 L 193.103 386.316 L 104.39 336.067 C 104.068 335.913 103.836 335.666 103.591 335.42 C 103.345 335.266 103.036 335.097 102.868 334.867 L 102.79 334.867 C 102.544 334.621 102.39 334.312 102.145 334.066 C 101.991 333.82 101.744 333.589 101.59 333.267 C 101.436 333.02 101.268 332.62 101.19 332.297 C 101.036 331.973 100.867 331.743 100.791 331.42 C 100.713 331.098 100.637 330.697 100.637 330.297 C 100.559 329.974 100.483 329.744 100.483 329.419 L 100.483 122.516 L 55.772 96.715 L 23.385 78.128 Z M 108.252 20.356 L 31.171 64.743 L 108.252 109.131 L 185.333 64.743 L 108.252 20.356 Z M 148.392 297.465 L 193.103 271.662 L 193.103 78.144 L 160.732 96.729 L 115.945 122.53 L 115.945 316.05 L 148.392 297.465 Z M 385.991 72.758 L 308.818 117.146 L 385.991 161.533 L 463.073 117.146 L 385.991 72.758 Z M 378.298 174.934 L 301.125 130.548 L 301.125 218.367 L 345.835 244.168 L 378.282 262.755 L 378.298 174.934 Z M 200.812 372.946 L 370.451 276.14 L 293.448 231.752 L 123.884 329.359 L 200.812 372.946 Z" style="fill: rgb(255, 255, 255);"/>
</svg>