<?xml version="1.0" encoding="utf-8"?>
<svg viewBox="0 0 500 500" xmlns="http://www.w3.org/2000/svg">
  <path d="M 149.247 209.604 L 129.944 209.604 L 119.428 263.652 L 136.573 263.652 C 147.884 263.652 156.333 261.509 161.921 257.208 C 167.415 252.983 171.165 245.805 173.079 235.839 C 174.976 226.274 174.105 219.492 170.615 215.512 C 167.017 211.61 159.916 209.619 149.247 209.619 L 149.247 209.604 Z M 251.051 117.38 C 115.755 117.38 6.142 175.102 6.142 246.203 C 6.142 317.302 115.755 375.025 251.051 375.025 C 386.349 375.025 495.961 317.302 495.961 246.203 C 495.961 175.102 386.349 117.38 251.051 117.38 Z M 184.482 269.484 C 179.217 274.581 172.772 278.409 165.823 280.704 C 158.965 282.863 150.209 284.056 139.602 284.056 L 115.434 284.056 L 108.821 318.343 L 80.672 318.343 L 105.79 189.276 L 159.839 189.276 C 176.109 189.276 187.988 193.501 195.472 202.027 C 202.896 210.553 205.208 222.522 202.162 237.83 C 201.06 243.89 198.901 249.708 195.963 255.142 C 193.008 260.3 189.274 265.107 184.466 269.484 L 184.482 269.484 Z M 266.68 284.056 L 277.762 226.916 C 279.032 220.441 278.558 216.002 276.308 213.584 C 274.165 211.273 269.451 210.079 262.286 210.079 L 240.046 210.079 L 225.702 284.056 L 197.722 284.056 L 222.826 154.913 L 250.73 154.913 L 244.041 189.276 L 268.914 189.276 C 284.635 189.276 295.381 191.986 301.289 197.405 C 307.274 202.916 309.018 211.746 306.722 223.962 L 294.983 284.071 L 266.68 284.056 Z M 421.647 237.83 C 420.544 243.89 418.461 249.708 415.447 255.142 C 412.568 260.3 408.758 265.107 404.043 269.484 C 398.701 274.505 392.334 278.409 385.307 280.704 C 378.451 282.863 369.68 284.056 359.088 284.056 L 335.011 284.056 L 328.321 318.343 L 300.172 318.343 L 325.29 189.276 L 379.338 189.276 C 395.61 189.276 407.487 193.501 414.973 202.119 C 422.396 210.569 424.707 222.522 421.662 237.83 L 421.647 237.83 Z M 368.731 209.604 L 349.506 209.604 L 338.989 263.652 L 356.056 263.652 C 367.444 263.652 375.894 261.509 381.404 257.208 C 386.977 252.983 390.726 245.805 392.655 235.839 C 394.553 226.274 393.681 219.492 390.083 215.512 C 386.593 211.61 379.414 209.619 368.731 209.619 L 368.731 209.604 Z" style="fill: rgb(255, 255, 255);"/>
</svg>