<?xml version="1.0" encoding="utf-8"?>
<svg viewBox="0 0 500 500" xmlns="http://www.w3.org/2000/svg">
  <path d="M 191.859 241.796 L 309.533 241.796 C 342.289 241.796 368.444 214.838 368.444 181.928 L 368.444 69.752 C 368.444 37.821 341.508 13.837 309.533 8.517 C 289.287 5.149 268.303 3.606 248.165 3.716 C 228.029 3.824 208.783 5.518 191.859 8.517 C 142.005 17.315 132.947 35.756 132.947 69.752 L 132.947 114.653 L 250.751 114.653 L 250.751 129.621 L 88.721 129.621 C 54.486 129.621 24.508 150.191 15.123 189.359 C 4.306 234.238 3.828 262.237 15.123 309.093 C 23.488 343.979 43.493 368.832 77.73 368.832 L 118.241 368.832 L 118.241 315.001 C 118.241 276.118 151.89 241.819 191.837 241.819 L 191.859 241.796 Z M 184.432 84.719 C 172.222 84.719 162.317 74.705 162.317 62.345 C 162.317 49.919 172.2 39.819 184.432 39.819 C 196.595 39.819 206.544 49.919 206.544 62.345 C 206.544 74.728 196.617 84.719 184.432 84.719 Z M 486.224 189.335 C 477.775 155.253 461.613 129.599 427.312 129.599 L 383.106 129.599 L 383.106 181.906 C 383.106 222.464 348.719 256.611 309.51 256.611 L 191.837 256.611 C 159.601 256.611 132.926 284.198 132.926 316.478 L 132.926 428.655 C 132.926 460.588 160.688 479.357 191.837 488.522 C 229.136 499.494 264.891 501.47 309.51 488.522 C 339.161 479.943 368.422 462.652 368.422 428.655 L 368.422 383.755 L 250.751 383.755 L 250.751 368.787 L 427.335 368.787 C 461.569 368.787 474.322 344.914 486.247 309.051 C 498.54 272.142 498.021 236.669 486.247 189.314 L 486.224 189.335 Z M 316.94 413.711 C 329.148 413.711 339.053 423.723 339.053 436.085 C 339.053 448.511 329.148 458.61 316.94 458.61 C 304.774 458.61 294.825 448.511 294.825 436.085 C 294.825 423.702 304.753 413.711 316.94 413.711 Z" style="fill: rgb(255, 255, 255);"/>
</svg>