<svg xmlns="http://www.w3.org/2000/svg" xmlns:xlink="http://www.w3.org/1999/xlink" width="133.81" height="40.624" viewBox="0 0 133.81 40.624">
  <defs>
    <linearGradient id="linear-gradient" x1="1" y1="0.5" x2="0" y2="0.5" gradientUnits="objectBoundingBox">
      <stop offset="0" stop-color="#0d5ba4"/>
      <stop offset="1" stop-color="#14134f"/>
    </linearGradient>
  </defs>
  <g id="logo" transform="translate(-88 -48.001)">
    <path id="Union_8" data-name="Union 8" d="M97.239,20.687c-.252-.108-.5-.228-.745-.355V14.357a6.165,6.165,0,0,0,.617.732,5.968,5.968,0,0,0,8.514.008l3.407,3.126-.152.158a10.569,10.569,0,0,1-3.375,2.307,10.507,10.507,0,0,1-8.266,0Zm24.159.44V11.4l-1.885-2.738v-7.6l4.245,5.663V6.72L128.186.29h5.624l-7.694,11.022v9.815Zm-49.185,0V16.98h9.225v4.147Zm-19.205,0-5.329-7.74v-7.6L53.007,12.9V.491h4.718V21.128Zm-23.086,0h0v0l-5.329-7.738v-7.6l5.329,7.105V.491h4.719V21.128Zm-21.887,0-1.2-3.086H0V13.967H5.246L0,.491H4.718l8.035,20.637Zm64.178-8.245V8.735h7.781v4.147ZM96.493,7.174V1.2c.244-.128.5-.247.745-.354a10.518,10.518,0,0,1,8.266,0,10.55,10.55,0,0,1,3.254,2.186L105.5,6.323a5.962,5.962,0,0,0-8.393.122,6.226,6.226,0,0,0-.617.73h0ZM72.212,4.638V.491h9.225V4.638Z" transform="translate(88 48.001)" fill="url(#linear-gradient)"/>
    <path id="Tracé_13" data-name="Tracé 13" d="M7.361-10.641H3.481v4.008H1.46v-9.808H7.846V-14.8H3.481v2.533h3.88Zm17.308-.081h-3.88v2.627h4.554v1.623H18.768V-16.28h6.561v1.637h-4.54v2.338h3.88ZM41.431-9.18a1.037,1.037,0,0,0-.4-.879,5.3,5.3,0,0,0-1.455-.647,10.315,10.315,0,0,1-1.664-.67,2.719,2.719,0,0,1-1.671-2.432,2.368,2.368,0,0,1,.448-1.418,2.922,2.922,0,0,1,1.287-.973,4.843,4.843,0,0,1,1.883-.35,4.408,4.408,0,0,1,1.873.381A2.982,2.982,0,0,1,43-15.094a2.812,2.812,0,0,1,.455,1.576H41.438a1.323,1.323,0,0,0-.424-1.048,1.745,1.745,0,0,0-1.192-.374,1.864,1.864,0,0,0-1.152.313.988.988,0,0,0-.411.825.946.946,0,0,0,.482.8,5.441,5.441,0,0,0,1.418.606,6.127,6.127,0,0,1,2.513,1.287,2.562,2.562,0,0,1,.788,1.913,2.36,2.36,0,0,1-.963,2,4.217,4.217,0,0,1-2.594.724,5.008,5.008,0,0,1-2.061-.414,3.262,3.262,0,0,1-1.418-1.135,2.907,2.907,0,0,1-.488-1.671h2.028q0,1.623,1.94,1.623a1.887,1.887,0,0,0,1.125-.293A.953.953,0,0,0,41.431-9.18Zm19.92-5.463h-3v8.171H56.326v-8.171H53.362V-16.28h7.989Zm13.092,8.01H72.423v-9.808h2.021ZM89.118-8.9l2.223-7.376h2.25L90.176-6.472H88.067l-3.4-9.808h2.243Zm19.928.411H105.5l-.674,2.021H102.68l3.651-9.808H108.2l3.671,9.808h-2.149Zm-3-1.637H108.5L107.268-13.8ZM124.2-8.095h4.291v1.623H122.18V-16.28H124.2Z" transform="translate(86.54 95.097)" fill="#fff"/>
  </g>
</svg>
